<svg width="32" height="32" viewBox="0 0 32 32" fill="none" xmlns="http://www.w3.org/2000/svg">
<g id="Facebook">
<g id="Facebook_2">
<path d="M32 16C32 24.8366 24.8366 32 16 32C7.16345 32 0 24.8366 0 16C0 7.16345 7.16345 0 16 0C24.8366 0 32 7.16345 32 16Z" fill="#202053"/>
<path d="M13.44 20.8V31.68C13.44 31.8567 13.5833 32 13.76 32H18.24C18.4167 32 18.56 31.8567 18.56 31.68V20.8C18.56 20.6233 18.7033 20.48 18.88 20.48H22.08C22.2567 20.48 22.4 20.3367 22.4 20.16V16.32C22.4 16.1433 22.2567 16 22.08 16H18.88C18.7033 16 18.56 15.8569 18.56 15.6802V12.8C18.56 11.52 20.16 10.88 20.8 10.88H22.72C22.8967 10.88 23.04 10.7367 23.04 10.56V6.72C23.04 6.54327 22.8968 6.4 22.72 6.4H18.56C15.488 6.4 13.44 9.6 13.44 11.52V15.68C13.44 15.8567 13.2967 16 13.12 16H9.92C9.74327 16 9.6 16.1433 9.6 16.32V20.16C9.6 20.3367 9.74327 20.48 9.92 20.48H13.12C13.2967 20.48 13.44 20.6233 13.44 20.8Z" fill="white"/>
</g>
</g>
</svg>
