<svg width="40" height="40" viewBox="0 0 40 40" fill="none" xmlns="http://www.w3.org/2000/svg">
<g clip-path="url(#clip0_36318_392)">
<path d="M33.3333 30C33.7581 30.0005 34.1667 30.1632 34.4756 30.4548C34.7845 30.7464 34.9704 31.1449 34.9953 31.569C35.0202 31.9931 34.8822 32.4107 34.6096 32.7364C34.3369 33.0622 33.9502 33.2715 33.5283 33.3217L33.3333 33.3334H6.66667C6.24187 33.3329 5.83328 33.1702 5.52439 32.8786C5.21549 32.587 5.02961 32.1884 5.00471 31.7644C4.97982 31.3403 5.11779 30.9227 5.39044 30.597C5.66309 30.2712 6.04984 30.0619 6.47167 30.0117L6.66667 30H33.3333ZM33.3333 18.3334C33.7754 18.3334 34.1993 18.5089 34.5118 18.8215C34.8244 19.1341 35 19.558 35 20C35 20.442 34.8244 20.866 34.5118 21.1785C34.1993 21.4911 33.7754 21.6667 33.3333 21.6667H6.66667C6.22464 21.6667 5.80072 21.4911 5.48816 21.1785C5.17559 20.866 5 20.442 5 20C5 19.558 5.17559 19.1341 5.48816 18.8215C5.80072 18.5089 6.22464 18.3334 6.66667 18.3334H33.3333ZM33.3333 6.66669C33.7754 6.66669 34.1993 6.84228 34.5118 7.15484C34.8244 7.4674 35 7.89133 35 8.33335C35 8.77538 34.8244 9.1993 34.5118 9.51186C34.1993 9.82443 33.7754 10 33.3333 10H6.66667C6.22464 10 5.80072 9.82443 5.48816 9.51186C5.17559 9.1993 5 8.77538 5 8.33335C5 7.89133 5.17559 7.4674 5.48816 7.15484C5.80072 6.84228 6.22464 6.66669 6.66667 6.66669H33.3333Z" fill="#EF3959"/>
</g>
<defs>
<clipPath id="clip0_36318_392">
<rect width="40" height="40" fill="white"/>
</clipPath>
</defs>
</svg>
