<svg width="38" height="52" viewBox="0 0 38 52" fill="none" xmlns="http://www.w3.org/2000/svg">
<g id="Location">
<path id="Vector" d="M37.1581 20.28C37.1581 23.0247 36.0963 26.3671 34.4655 29.8555C32.8373 33.3381 30.654 36.9411 28.4372 40.1995C26.2209 43.4573 23.9744 46.3656 22.2228 48.4583C21.3468 49.505 20.5964 50.3453 20.0368 50.9224C19.7565 51.2115 19.5276 51.4309 19.3566 51.5765C19.2706 51.6497 19.2043 51.6999 19.1568 51.7303C19.1559 51.7309 19.1551 51.7314 19.1542 51.732C19.1534 51.7314 19.1525 51.7309 19.1517 51.7303C19.1041 51.6999 19.0378 51.6497 18.9519 51.5765C18.7809 51.4309 18.5519 51.2115 18.2716 50.9224C17.712 50.3453 16.9617 49.505 16.0856 48.4583C14.334 46.3656 12.0876 43.4573 9.87122 40.1995C7.65443 36.9411 5.47115 33.3381 3.84298 29.8555C2.21215 26.3671 1.15039 23.0247 1.15039 20.28C1.15039 9.19231 9.23507 0.25 19.1542 0.25C29.0733 0.25 37.1581 9.19232 37.1581 20.28ZM19.1542 30.6733C24.4277 30.6733 28.659 25.9325 28.659 20.1413C28.659 14.35 24.4277 9.60933 19.1542 9.60933C13.8809 9.60933 9.64956 14.35 9.64956 20.1413C9.64956 25.9325 13.8809 30.6733 19.1542 30.6733Z" fill="url(#paint0_linear_33217_1095)" stroke="#4A86FF" stroke-width="0.5"/>
</g>
<defs>
<linearGradient id="paint0_linear_33217_1095" x1="1.03471" y1="24.1295" x2="37.9533" y2="25.7703" gradientUnits="userSpaceOnUse">
<stop stop-color="#4A86FF"/>
<stop offset="0.5" stop-color="#F5F5F5"/>
<stop offset="1" stop-color="#EF3959"/>
</linearGradient>
</defs>
</svg>
